# AST/ASF file generated using VICON BodyLanguage
# -----------------------------------------------
:version 1.10
:name VICON
:units
  mass 1.0
  length 0.45
  angle deg
:documentation
   .ast/.asf automatically generated from VICON data using
   VICON BodyBuilder and BodyLanguage model FoxedUp or BRILLIANT.MOD
:root
   order TX TY TZ RX RY RZ
   axis XYZ
   position 0 0 0  
   orientation 0 0 0 
:bonedata
  begin
     id 1 
     name lhipjoint
     direction 0.612567 -0.751349 0.245431 
     length 2.42285 
     axis 0 0 0  XYZ
  end
  begin
     id 2 
     name lfemur
     direction 0.34202 -0.939693 0  
     length 7.11304  
     axis 0 0 20  XYZ
    dof rx ry rz
    limits (-160.0 20.0)
           (-70.0 70.0)
           (-60.0 70.0)
  end
  begin
     id 3 
     name ltibia
     direction 0.34202 -0.939693 0   
     length 7.84529   
     axis 0 0 20   XYZ
    dof rx
    limits (-10.0 170.0)
  end
  begin
     id 4 
     name lfoot
     direction 0.0779239 -0.214094 0.9737   
     length 1.97176   
     axis -90 7.62852e-016 20   XYZ
    dof rx rz
    limits (-45.0 90.0)
           (-70.0 20.0)
  end
  begin
     id 5 
     name ltoes
     direction 1.53565e-011 -4.21709e-011 1   
     length 0.993197   
     axis -90 7.62852e-016 20   XYZ
    dof rx
    limits (-90.0 20.0)
  end
  begin
     id 6 
     name rhipjoint
     direction -0.665722 -0.709315 0.231701   
     length 2.56642  
     axis 0 0 0  XYZ 
  end
  begin
     id 7 
     name rfemur
     direction -0.34202 -0.939693 0   
     length 7.32108   
     axis 0 0 -20   XYZ
    dof rx ry rz
    limits (-160.0 20.0)
           (-70.0 70.0)
           (-70.0 60.0)
  end
  begin
     id 8 
     name rtibia
     direction -0.34202 -0.939693 0   
     length 7.81254   
     axis 0 0 -20   XYZ
    dof rx
    limits (-10.0 170.0)
 end
 begin
     id 9 
     name rfoot
     direction -0.0832806 -0.228812 0.969902   
     length 2.08278  
     axis -90 -7.62852e-016 -20   XYZ
    dof rx rz
    limits (-45.0 90.0)
           (-20.0 70.0)
  end
  begin
     id 10 
     name rtoes
     direction -1.53589e-011 -4.22086e-011 1   
     length 1.04609   
     axis -90 -7.62852e-016 -20   XYZ
    dof rx
    limits (-90.0 20.0)
  end
  begin
     id 11 
     name lowerback
     direction -0.00506013 0.988403 -0.151766   
     length 2.01978   
     axis 0 0 0   XYZ
    dof rx ry rz
    limits (-20.0 45.0)
           (-30.0 30.0)
           (-30.0 30.0)
  end
  begin
     id 12 
     name upperback
     direction -0.00836389 0.99968 0.0238859   
     length 2.01276   
     axis 0 0 0   XYZ
    dof rx ry rz
    limits (-20.0 45.0)
           (-30.0 30.0)
           (-30.0 30.0)
  end
  begin
     id 13 
     name thorax
     direction -0.00684136 0.995386 0.0957043   
     length 2.07303   
     axis 0 0 0   XYZ
    dof rx ry rz
    limits (-20.0 45.0)
           (-30.0 30.0)
           (-30.0 30.0)
  end
  begin
     id 14 
     name lowerneck
     direction -0.0161045 0.999661 0.0204485   
     length 1.91243   
     axis 0 0 0   XYZ
    dof rx ry rz
    limits (-20.0 45.0)
           (-30.0 30.0)
           (-30.0 30.0)
  end
  begin
     id 15 
     name upperneck
     direction 0.0553583 0.990946 -0.122319   
     length 1.91574   
     axis 0 0 0   XYZ
    dof rx ry rz
    limits (-20.0 45.0)
           (-30.0 30.0)
           (-30.0 30.0)
  end
  begin
     id 16
     name head
     direction 0.0180273 0.998839 -0.0446756  
     length 1.92693  
     axis 0 0 0   XYZ
    dof rx ry rz
    limits (-20.0 45.0)
           (-30.0 30.0)
           (-30.0 30.0)
  end
  begin
     id 17 
     name lclavicle
     direction 0.945646 0.319323 -0.0615358  
     length 4.0076  
     axis 0 0 0   XYZ
    dof ry rz
    limits (-20.0 10.0)
           (0.0 20.0)
  end
  begin
     id 18 
     name lhumerus
     direction 1 -4.48967e-011 -2.79996e-027   
     length 5.64147   
     axis 180 -30 -90   XYZ
    dof rx ry rz
    limits (-60.0 90.0)
           (-90.0 90.0)
           (-90.0 90.0)
  end
  begin
     id 19
     name lradius
     direction 1 -4.48976e-011 -9.5122e-027   
     length 2.86444   
     axis 180 -30 -90   XYZ
    dof rx
    limits (-10.0 170.0)
  end
  begin
     id 20
     name lwrist
     direction 1 -4.48983e-011 -1.24047e-026   
     length 1.43222   
     axis 9.05591e-015 90 90   XYZ
    dof ry
    limits (-180.0 0.0)
 end
  begin
     id 21 
     name lhand
     direction 1 -4.4892e-011 -2.48094e-026   
     length 0.722123   
     axis 1.58305e-014 90 90   XYZ
    dof rx rz
    limits (-90.0 90.0)
           (-45.0 45.0)
  end
  begin
     id 22 
     name lfingers
     direction 1 -4.48895e-011 -4.96187e-026   
     length 0.582194   
     axis 3.1661e-014 90 90   XYZ
    dof rx
    limits (0.0 90.0)
  end
  begin
     id 23
     name lthumb
     direction 0.707107 -6.34961e-011 0.707107   
     length 0.835918   
     axis -90 45 2.85299e-015   XYZ
    dof rx rz
    limits (-45.0 45.0)
           (-45.0 45.0)
  end
  begin
     id 24 
     name rclavicle
     direction -0.932635 0.324218 -0.15835   
     length 3.65819  
     axis 0 0 0   XYZ 
    dof ry rz
    limits (-10.0 20.0)
           (-20.0 0.0)
  end
  begin
     id 25 
     name rhumerus
     direction -1 -4.48965e-011 -4.02296e-027  
     length 5.44729   
     axis 180 30 90   XYZ
    dof rx ry rz
    limits (-90.0 60.0)
           (-90.0 90.0)
           (-90.0 90.0)
  end
  begin
     id 26 
     name rradius
     direction -1 -4.48957e-011 -8.81087e-027   
     length 3.08821   
     axis 180 30 90   XYZ
    dof rx
    limits (-10.0 170.0)
  end
  begin
     id 27 
     name rwrist
     direction -1 -4.49015e-011 -1.24047e-026   
     length 1.5441   
     axis 9.05591e-015 -90 -90   XYZ
    dof ry
    limits (-180.0 0.0)
  end
  begin
     id 28
     name rhand
     direction -1 -4.4891e-011 -2.48094e-026   
     length 0.821049   
     axis 1.58305e-014 -90 -90   XYZ
    dof rx rz
    limits (-90.0 90.0)
           (-45.0 45.0)
  end
  begin
     id 29
     name rfingers
     direction -1 -4.48985e-011 -4.96187e-026   
     length 0.661951   
     axis 3.1661e-014 -90 -90   XYZ
    dof rx
    limits (0.0 90.0)
  end
  begin
     id 30
     name rthumb
     direction -0.707107 -6.34906e-011 0.707107   
     length 0.950433   
     axis -90 -45 -2.85299e-015   XYZ
    dof rx rz
    limits (-45.0 45.0)
           (-45.0 45.0)
  end
:hierarchy
  begin
    root lhipjoint rhipjoint lowerback
    lhipjoint lfemur
    lfemur ltibia
    ltibia lfoot
    lfoot ltoes
    rhipjoint rfemur
    rfemur rtibia
    rtibia rfoot
    rfoot rtoes
    lowerback upperback
    upperback thorax
    thorax lowerneck lclavicle rclavicle
    lowerneck upperneck
    upperneck head
    lclavicle lhumerus
    lhumerus lradius
    lradius lwrist
    lwrist lhand lthumb
    lhand lfingers
    rclavicle rhumerus
    rhumerus rradius
    rradius rwrist
    rwrist rhand rthumb
    rhand rfingers
  end

#!OML:ASF F:\VICON\USERDATA\INSTALL\rory3\rory3.ASF
:FULLY-SPECIFIED
:DEGREES
2414
root 3.75427 17.6366 -0.227531 180.836 97.8151 181.186
lowerback -2.16276 -0.8414 -1.32331
upperback -7.00381 -1.078 -3.06125
thorax -6.09347 -0.471035 -2.42335
lowerneck -7.95355 6.75236 -0.841179
upperneck 28.2306 8.45527 8.44297
head 9.8013 5.13523 4.0411
rclavicle 3.91606e-014 7.95139e-015
rhumerus -46.0341 7.67981 -88.3584
rradius 98.8805
rwrist -5.18907
rhand -14.3417 27.557
rfingers 7.12502
rthumb 11.7996 -2.09063
lclavicle 3.91606e-014 7.95139e-015
lhumerus 40.7535 13.1142 24.5917
lradius 120.134
lwrist 70.8554
lhand 10.8976 13.6206
lfingers 7.12502
lthumb 35.9772 39.9427
rfemur -0.534286 4.39049 16.8644
rtibia 16.929
rfoot -18.4587 -3.61687
rtoes -7.93687
lfemur 3.62666 2.94617 -18.2396
ltibia 9.53953
lfoot -13.7808 2.26928
ltoes -0.969599
2415
root 3.75461 17.6369 -0.224763 181.135 97.7803 181.478
lowerback -2.14597 -0.869127 -1.40967
upperback -7.01737 -1.1155 -3.02503
thorax -6.11616 -0.483576 -2.33583
lowerneck -8.06994 6.56303 -1.05874
upperneck 28.2274 8.19338 8.52537
head 9.82017 4.99936 4.0872
rclavicle -5.76476e-015 3.97569e-015
rhumerus -45.9927 7.6845 -88.3124
rradius 98.8165
rwrist -5.13628
rhand -14.3422 27.6492
rfingers 7.12502
rthumb 11.7991 -1.99838
lclavicle -5.76476e-015 3.97569e-015
lhumerus 40.1657 13.1211 24.6993
lradius 120.073
lwrist 70.7361
lhand 10.6255 13.2197
lfingers 7.12502
lthumb 35.7194 39.6047
rfemur -0.549775 4.41206 16.829
rtibia 16.9588
rfoot -18.5291 -3.54368
rtoes -7.50485
lfemur 3.65477 2.93308 -18.275
ltibia 9.46072
lfoot -13.729 2.24554
ltoes -0.646448
2416
root 3.75417 17.6382 -0.22258 181.706 97.7651 182.045
lowerback -2.09151 -0.89931 -1.50802
upperback -7.04154 -1.15796 -2.98244
thorax -6.17143 -0.497655 -2.23452
lowerneck -8.14389 6.31532 -1.37362
upperneck 28.1391 7.86897 8.5834
head 9.8006 4.81943 4.12722
rclavicle -5.1684e-015 1.59028e-014
rhumerus -45.9718 7.73825 -88.2448
rradius 98.7808
rwrist -5.12717
rhand -14.2907 27.7234
rfingers 7.12502
rthumb 11.8488 -1.92135
lclavicle -5.1684e-015 1.59028e-014
lhumerus 39.3656 13.1042 24.7985
lradius 120.029
lwrist 70.5488
lhand 10.2152 12.772
lfingers 7.12502
lthumb 35.3305 39.2502
rfemur -0.566051 4.45248 16.7629
rtibia 16.9723
rfoot -18.5626 -3.64553
rtoes -7.75851
lfemur 3.67187 2.93895 -18.3572
ltibia 9.40398
lfoot -13.6798 2.2285
ltoes -0.718383
2417
root 3.75191 17.6393 -0.221312 181.149 97.7696 181.46
lowerback -2.03015 -0.914181 -1.44338
upperback -7.0824 -1.17674 -2.88963
thorax -6.2496 -0.507969 -2.17271
lowerneck -8.19907 5.9962 -1.72021
upperneck 28.0099 7.4561 8.60558
head 9.76981 4.58976 4.14891
rclavicle -2.42517e-014 -2.54444e-014
rhumerus -46.0246 7.81844 -88.1687
rradius 98.7641
rwrist -5.12175
rhand -14.3342 27.696
rfingers 7.12502
rthumb 11.8069 -1.95114
lclavicle -2.42517e-014 -2.54444e-014
lhumerus 38.3572 12.9791 24.8343
lradius 119.977
lwrist 70.0204
lhand 9.65841 12.2317
lfingers 7.12502
lthumb 34.8023 38.8337
rfemur -0.613248 4.49177 16.8648
rtibia 16.9934
rfoot -18.5687 -3.75543
rtoes -8.12599
lfemur 3.67505 2.96759 -18.2648
ltibia 9.32547
lfoot -13.588 2.24428
ltoes -1.04341
2418
root 3.75131 17.642 -0.2199 180.894 97.7885 181.169
lowerback -1.99494 -0.933397 -1.40045
upperback -7.11142 -1.20097 -2.81594
thorax -6.30036 -0.520306 -2.11866
lowerneck -8.29697 5.64406 -1.97401
upperneck 27.8477 6.99605 8.54863
head 9.74873 4.33676 4.12411
rclavicle 1.53064e-014 -4.77083e-015
rhumerus -46.0713 7.85469 -88.1226
rradius 98.7395
rwrist -5.06359
rhand -14.4819 27.7458
rfingers 7.12502
rthumb 11.6644 -1.90955
lclavicle 1.53064e-014 -4.77083e-015
lhumerus 37.144 12.7868 24.852
lradius 119.959
lwrist 69.223
lhand 8.96389 11.6466
lfingers 7.12502
lthumb 34.143 38.3985
rfemur -0.671111 4.53714 16.9143
rtibia 17.0213
rfoot -18.549 -3.80839
rtoes -8.20955
lfemur 3.6773 3.00995 -18.2172
ltibia 9.25661
lfoot -13.5211 2.22317
ltoes -1.20688
2419
root 3.75226 17.6434 -0.217985 181.156 97.8044 181.445
lowerback -1.95548 -0.956892 -1.41948
upperback -7.1017 -1.23257 -2.74723
thorax -6.31108 -0.533475 -2.03445
lowerneck -8.38558 5.24369 -2.25519
upperneck 27.5762 6.47708 8.45603
head 9.69185 4.04636 4.07898
rclavicle 2.26615e-014 2.38542e-014
rhumerus -46.0353 7.92499 -88.0171
rradius 98.7255
rwrist -5.05177
rhand -14.4861 27.7773
rfingers 7.12502
rthumb 11.6604 -1.87827
lclavicle 2.26615e-014 2.38542e-014
lhumerus 35.736 12.5312 24.9325
lradius 119.968
lwrist 68.2243
lhand 8.14182 10.8877
lfingers 7.12502
lthumb 33.3619 37.8109
rfemur -0.656441 4.58434 16.8917
rtibia 17.0371
rfoot -18.5835 -3.90737
rtoes -8.66128
lfemur 3.69055 3.04732 -18.2553
ltibia 9.2484
lfoot -13.5301 2.17378
ltoes -1.03833
